<svg xmlns="http://www.w3.org/2000/svg" xml:space="preserve" width="500" height="474.72501" viewBox="0 0 499.99999 474.725"><defs><clipPath id="a" clipPathUnits="userSpaceOnUse"><path d="M0 595.275h841.89V0H0Z"/></clipPath></defs><g clip-path="url(#a)" transform="matrix(1.33333 0 0 -1.33333 0 793.7)"><path d="M0 0s-7.05 12.9-15.149 10.2c0 0-8.101-6.6.299-20.1 0 0-10.65-9.15-13.05-28.35 0 0-15-13.65-10.5-27.6 0 0 1.05-12.3 21.45-20.4l-3.45-5.4s-24-18.75-11.85-27.15c0 0 5.4-2.549 7.65.3 0 0-.45-9.15 2.4-21.15 0 0-2.55-21.75 9-21 0 0 13.5-4.5 12.75 13.8 0 0 11.85-4.501 30.6-1.351 0 0 1.05-14.701 13.65-13.5 0 0 10.65-1.649 13.499 17.101 0 0 31.201-12 51.601-7.65 0 0 36.151 3.45 36.3 13.649 0 0 2.099 2.251-14.551 5.101 0 0-24.149 1.799-36.599 10.199 0 0-11.399 9.15-17.699 24.75 0 0-7.351 13.95-8.851 36 0 0-1.949 25.35-7.05 39.301l.75 1.5s12 7.949 7.8 19.199c0 0-2.85 6.9-21.449-2.4C47.551-4.951 20.1 6.9 0 0" style="fill:#66ce94;fill-opacity:1;fill-rule:nonzero;stroke:none" transform="matrix(1.83797 0 0 1.83797 106.026 538.252)"/><path d="m0 0 4.5-18.9S12.451-15 8.851-6.45C5.25 2.101.75.3 0 0" style="fill:#1f969a;fill-opacity:1;fill-rule:nonzero;stroke:none" transform="matrix(1.83797 0 0 1.83797 217.683 493.588)"/><path d="M0 0s2.4-15 2.4-20.1c0 0 9.15 3.75 6.75 12.6C6.75 1.35 0 0 0 0" style="fill:#1f969a;fill-opacity:1;fill-rule:nonzero;stroke:none" transform="matrix(1.83797 0 0 1.83797 226.781 456.646)"/><path d="M0 0s-.301-7.649 1.949-15l1.35-4.35s8.85 4.951 4.65 12.451C7.949-6.899 6.75.3 0 0" style="fill:#1f969a;fill-opacity:1;fill-rule:nonzero;stroke:none" transform="matrix(1.83797 0 0 1.83797 232.296 416.67)"/><path d="M0 0s4.649-15.601 7.65-18.45c0 0 7.049 4.5 2.549 13.65C5.699 4.351 0 0 0 0" style="fill:#1f969a;fill-opacity:1;fill-rule:nonzero;stroke:none" transform="matrix(1.83797 0 0 1.83797 238.912 377.796)"/><path d="M0 0s8.4 3.75 13.05-3c0 0 5.849-6.901.299-13.351C13.349-16.351 1.65-5.4 0 0" style="fill:#1f969a;fill-opacity:1;fill-rule:nonzero;stroke:none" transform="matrix(1.83797 0 0 1.83797 252.973 342.508)"/><path d="M0 0s5.25 6.3 12.15 3.75c0 0 8.25-4.65 6.15-10.8C18.3-7.05 3.45-3 0 0" style="fill:#1f969a;fill-opacity:1;fill-rule:nonzero;stroke:none" transform="matrix(1.83797 0 0 1.83797 278.888 311.63)"/><path d="M0 0c2.25 4.2-5.249 7.95-5.249 7.95-7.051 1.499-9.601-4.051-9.601-4.051l2.7-1.349z" style="fill:#1f969a;fill-opacity:1;fill-rule:nonzero;stroke:none" transform="matrix(1.83797 0 0 1.83797 341.193 292.883)"/><path d="M0 0c.191-.434 4.8 9 4.8 9s8.7-5.102 8.25 4.649l-4.5 3.301 2.849 8.099-.45 1.951L5.4 28.649-.301 21-7.8 6.3-9.301 3S-.6 1.35 0 0" style="fill:#fef5aa;fill-opacity:1;fill-rule:nonzero;stroke:none" transform="matrix(1.83797 0 0 1.83797 174.4 534.944)"/><path d="m0 0 6.15 15s4.95 9.6.6 11.55c0 0-3.6 2.251-6-.3L-3.6 17.1s-3.559 2.641-5.756 2.398a1.823 1.823 0 0 1-.844-.298l-2.55-6.301L-6.9 9.3-11.25-.75l.75-.6z" style="fill:#fef5aa;fill-opacity:1;fill-rule:nonzero;stroke:none" transform="matrix(1.83797 0 0 1.83797 132.493 542.939)"/><path d="m0 0 6.15-.3L3.6-4.05Z" style="fill:#fff;fill-opacity:1;fill-rule:nonzero;stroke:none" transform="matrix(1.83797 0 0 1.83797 131.252 399.024)"/><path d="M0 0s-13.275 41.625 8.325 43.425C29.925 45.225 39.15 27 36.675-4.5l-.956-1.237-5.034-.703L21-6.824l-8.062 1.312L7.575-4.35s-5.4 2.512-5.512 2.512C1.95-1.838 0 0 0 0" style="fill:#fef5aa;fill-opacity:1;fill-rule:nonzero;stroke:none" transform="matrix(1.83797 0 0 1.83797 93.62 276.48)"/><path d="M0 0c-12.187 0-18.429 5.176-18.738 5.439a1.35 1.35 0 0 0 1.747 2.059c.081-.07 8.428-6.892 24.625-4.124A1.35 1.35 0 0 0 8.089.712C5.152.21 2.456 0 0 0" style="fill:#66ce94;fill-opacity:1;fill-rule:nonzero;stroke:none" transform="matrix(1.83797 0 0 1.83797 127.554 320.42)"/><path d="M0 0c-11.863 0-17.857 4.824-18.155 5.07a1.351 1.351 0 0 0 1.718 2.083c.101-.081 8.085-6.383 23.826-3.834A1.35 1.35 0 0 0 7.821.654 48.823 48.823 0 0 0 0 0" style="fill:#66ce94;fill-opacity:1;fill-rule:nonzero;stroke:none" transform="matrix(1.83797 0 0 1.83797 128.439 298.194)"/><path d="M0 0c-12.92 0-18.831 4.654-19.121 4.889a1.35 1.35 0 0 0 1.698 2.1c.112-.09 7.866-6.037 25.077-3.762A1.35 1.35 0 0 0 8.007.55 61.121 61.121 0 0 0 0 0" style="fill:#66ce94;fill-opacity:1;fill-rule:nonzero;stroke:none" transform="matrix(1.83797 0 0 1.83797 131.335 277.834)"/><path d="M0 0c-12.584 0-24.434 2.83-33.446 8.288-7.468 4.523-12.196 10.339-13.672 16.821-3.78 16.589 7.858 26.535 10.19 28.333 3.134 17.812 10.773 30.035 22.71 36.334 22.533 11.889 52.022-1.398 53.266-1.97a1.126 1.126 0 0 0-.939-2.045c-.294.135-29.741 13.397-51.285 2.02-11.381-6.008-18.652-17.839-21.611-35.162a1.133 1.133 0 0 0-.474-.739c-.552-.38-13.488-9.483-9.663-26.272 1.338-5.872 5.71-11.196 12.644-15.395C-18.547 1.895 2.114-.075 21.643 5.071a1.125 1.125 0 1 0 .572-2.175A87.598 87.598 0 0 0 0 0" style="fill:#000;fill-opacity:1;fill-rule:nonzero;stroke:none" transform="matrix(1.83797 0 0 1.83797 120.31 370.063)"/><path d="M0 0c-.41 0-.805.224-1.003.614-.339.665-8.179 16.337 1.961 21.897.135.074.284.12.437.134.104.016 10.51.833 15.256-11.826a1.123 1.123 0 0 0-.658-1.447 1.121 1.121 0 0 0-1.447.658C10.764 20.115 3.198 20.465 1.822 20.414-6.08 15.762.929 1.778 1.001 1.636A1.125 1.125 0 0 0 0 0" style="fill:#000;fill-opacity:1;fill-rule:nonzero;stroke:none" transform="matrix(1.83797 0 0 1.83797 77.08 518.54)"/><path d="M0 0c-11.886 0-27.407 1.732-42.589 8.521a1.126 1.126 0 0 0 .917 2.055c36.776-16.445 80.131-4.789 85.635 2.643.715.964.544 1.393.488 1.535-.842 2.104-8.869 3.509-16.633 4.867-8.703 1.522-19.535 3.417-28.39 7.194-20.596 8.783-31.218 42.176-32.183 63.082-.883 19.124-7.68 40.897-7.749 41.114-.16.509.059 1.061.525 1.321 10.999 6.138 9.041 16.52 8.554 18.484-6.859 5.517-20.744-3.513-20.886-3.607a1.125 1.125 0 0 0-1.239 1.878c.64.425 15.807 10.292 23.863 3.206a1.12 1.12 0 0 0 .333-.519c.042-.134 3.849-13.313-8.742-20.95 1.277-4.267 6.793-23.579 7.589-40.823.91-19.736 11.335-52.808 30.817-61.117 8.617-3.675 19.306-5.545 27.896-7.047 10.254-1.794 17.027-2.979 18.335-6.249.459-1.151.201-2.399-.769-3.708C42.229 7.097 28.48 2.397 13.08.706A120.326 120.326 0 0 0 0 0" style="fill:#000;fill-opacity:1;fill-rule:nonzero;stroke:none" transform="matrix(1.83797 0 0 1.83797 289.054 255.482)"/><path d="M0 0c-.977 0-1.979.131-3.007.395-2.738.702-4.702 2.259-5.837 4.626-3.343 6.969 1.869 18.635 2.092 19.128a1.124 1.124 0 0 0 2.05-.928c-.05-.112-5.004-11.206-2.112-17.228.846-1.764 2.274-2.883 4.366-3.418 2.457-.631 4.722-.327 6.735.894 5.395 3.278 7.469 11.982 7.489 12.07a1.124 1.124 0 1 0 2.192-.509c-.092-.395-2.317-9.72-8.513-13.484C3.759.516 1.933 0 0 0" style="fill:#000;fill-opacity:1;fill-rule:nonzero;stroke:none" transform="matrix(1.83797 0 0 1.83797 185.753 317.724)"/><path d="M0 0c-.372 0-.751.015-1.141.042-11.873.864-12.02 7.88-12.189 16.003-.024 1.134-.048 2.309-.104 3.518-.19 4.196-.659 6.756-1.155 9.466-.649 3.546-1.32 7.212-1.32 14.66 0 22.405 7.134 31.804 7.438 32.193A1.126 1.126 0 0 0-6.696 74.5c-.094-.123-6.963-9.312-6.963-30.811 0-7.243.652-10.808 1.284-14.254.488-2.665.992-5.421 1.19-9.769.055-1.229.081-2.423.104-3.573.171-8.164.274-13.091 10.103-13.806 2.902-.217 5.146.509 6.677 2.14 3.378 3.597 2.486 10.467 2.477 10.536a1.124 1.124 0 1 0 2.229.304c.045-.326 1.038-8.01-3.066-12.381C5.539.969 3.073 0 0 0" style="fill:#000;fill-opacity:1;fill-rule:nonzero;stroke:none" transform="matrix(1.83797 0 0 1.83797 87.71 240.429)"/><path d="M0 0c-3.744 0-6.801 1.132-9.097 3.371-3.273 3.191-4.07 7.748-4.261 9.974-28.334-4.067-36.81 6.005-37.162 6.441a1.125 1.125 0 0 0 1.749 1.415c.112-.135 8.485-9.761 36.306-5.448a1.13 1.13 0 0 0 1.297-1.129c-.001-.061-.038-6.065 3.652-9.652C-5.52 3.032-2.766 2.129.71 2.266c8.9.37 9.957 4.964 11.876 13.304.206.897.42 1.826.653 2.787a1.125 1.125 0 1 0 2.187-.531c-.231-.951-.443-1.873-.647-2.761C12.828 6.586 11.418.459.804.017A19.832 19.832 0 0 0 0 0" style="fill:#000;fill-opacity:1;fill-rule:nonzero;stroke:none" transform="matrix(1.83797 0 0 1.83797 184.45 239.231)"/><path d="M0 0a7.656 7.656 0 0 0-2.013.264c-1.711.465-4.024 1.759-5.329 5.282-3.693 9.967 16.347 27.077 17.203 27.8a1.124 1.124 0 1 0 1.453-1.717c-5.487-4.647-19.159-18.25-16.547-25.3.77-2.079 2.087-3.425 3.81-3.893 1.951-.531 3.958.147 4.998.998.481.392 1.19.321 1.584-.159A1.127 1.127 0 0 0 5 1.691C3.854.755 2.008 0 0 0" style="fill:#000;fill-opacity:1;fill-rule:nonzero;stroke:none" transform="matrix(1.83797 0 0 1.83797 52.657 316.019)"/><path d="M0 0c-.826 0-1.554.197-2.162.463-3.217 1.412-4.97 5.75-4.764 8.117a1.125 1.125 0 0 0 2.241-.195c-.143-1.652 1.264-4.912 3.426-5.861 1.604-.705 3.378-.008 5.273 2.066 9.267 10.149 17.92 5.979 18.285 5.798a1.126 1.126 0 0 0-1.004-2.014c-.306.15-7.547 3.541-15.62-5.301C3.531.726 1.585 0 0 0" style="fill:#000;fill-opacity:1;fill-rule:nonzero;stroke:none" transform="matrix(1.83797 0 0 1.83797 12.76 414.59)"/><path d="M0 0c-2.938 0-5.983 1.585-9.062 4.718-7.785 7.923-16.912 5.093-17.299 4.97a1.129 1.129 0 0 0-1.417.721c-.191.59.129 1.223.718 1.417.435.143 10.812 3.417 19.603-5.532C-4.686 3.475-2.063 2.123.348 2.26c2.518.151 3.988 1.967 4.003 1.985a1.125 1.125 0 0 0 1.78-1.376C6.048 2.761 4.051.227.482.015A7.733 7.733 0 0 0 0 0" style="fill:#000;fill-opacity:1;fill-rule:nonzero;stroke:none" transform="matrix(1.83797 0 0 1.83797 210.532 406.55)"/><path d="M0 0c-6.024 0-9.553 1.326-12.772 2.535-3.78 1.419-7.348 2.759-14.542 1.744-5.617-.792-9.756-.203-12.306 1.753-1.931 1.482-2.19 3.189-2.213 3.379a.9.9 0 0 0 .785 1.002.893.893 0 0 0 1.001-.773c.015-.101.979-5.199 12.482-3.579C-19.92 7.142-16.14 5.722-12.14 4.22-7.671 2.541-3.05.804 7.977 2.46A.9.9 0 1 0 8.244.68C5.038.199 2.332 0 0 0" style="fill:#000;fill-opacity:1;fill-rule:nonzero;stroke:none" transform="matrix(1.83797 0 0 1.83797 139.918 396.97)"/><path d="M0 0a.901.901 0 0 0-.611.239l-3.9 3.6a.9.9 0 0 0 1.222 1.322l3.236-2.988 2.69 2.935a.9.9 0 1 0 1.327-1.216l-3.3-3.6A.9.9 0 0 0 .038 0H0" style="fill:#000;fill-opacity:1;fill-rule:nonzero;stroke:none" transform="matrix(1.83797 0 0 1.83797 137.18 390.204)"/><path d="M0 0a1.646 1.646 0 1 0-3.293 0A1.646 1.646 0 0 0 0 0" style="fill:#000;fill-opacity:1;fill-rule:nonzero;stroke:none" transform="matrix(1.83797 0 0 1.83797 100.328 423.638)"/><path d="M0 0a1.646 1.646 0 1 0-3.293-.001A1.646 1.646 0 0 0 0 0" style="fill:#000;fill-opacity:1;fill-rule:nonzero;stroke:none" transform="matrix(1.83797 0 0 1.83797 115.944 421.56)"/><path d="M0 0a1.126 1.126 0 0 0-.555 2.104c.24.138 5.93 3.518 3.751 10.85-2.174 7.312-7.484 6.639-7.538 6.632a1.13 1.13 0 0 0-1.272.955 1.123 1.123 0 0 0 .954 1.272c.073.01 7.292.932 10.013-8.217C8.052 4.518.629.189.554.146A1.112 1.112 0 0 0 0 0" style="fill:#000;fill-opacity:1;fill-rule:nonzero;stroke:none" transform="matrix(1.83797 0 0 1.83797 226.369 456.371)"/><path d="M0 0a1.125 1.125 0 0 0-.544 2.11c.241.136 5.971 3.451 3.875 10.807-2.068 7.261-7.25 6.742-7.468 6.717a1.12 1.12 0 0 0-1.252.978 1.122 1.122 0 0 0 .966 1.253c.078.012 7.303.847 9.918-8.332C8.09 4.425.618.182.542.14A1.117 1.117 0 0 0 0 0" style="fill:#000;fill-opacity:1;fill-rule:nonzero;stroke:none" transform="matrix(1.83797 0 0 1.83797 234.847 419.57)"/><path d="M0 0a1.126 1.126 0 0 0-.539 2.113c.246.137 6.065 3.454 3.93 10.801-2.112 7.27-7.398 6.744-7.62 6.717a1.12 1.12 0 0 0-1.249.98 1.12 1.12 0 0 0 .968 1.252c.077.011 7.396.851 10.061-8.321C8.2 4.427.614.179.537.137A1.12 1.12 0 0 0 0 0" style="fill:#000;fill-opacity:1;fill-rule:nonzero;stroke:none" transform="matrix(1.83797 0 0 1.83797 239.27 379.32)"/><path d="M0 0a1.124 1.124 0 0 0-.67 2.029c.223.168 5.524 4.265 2.387 11.242-3.137 6.974-8.423 5.609-8.475 5.592a1.125 1.125 0 0 0-.597 2.169c.073.021 7.207 1.871 11.123-6.839C7.661 5.537.739.273.669.222A1.115 1.115 0 0 0 0 0" style="fill:#000;fill-opacity:1;fill-rule:nonzero;stroke:none" transform="matrix(1.83797 0 0 1.83797 253.362 341.932)"/><path d="M0 0a1.124 1.124 0 0 0-.959 1.712c.145.24 3.525 6.024-1.997 11.318-5.519 5.29-9.908 2.045-9.952 2.012a1.125 1.125 0 1 0-1.365 1.787c.058.044 5.982 4.433 12.875-2.175C5.453 8.086 1.006.613.96.538A1.123 1.123 0 0 0 0 0" style="fill:#000;fill-opacity:1;fill-rule:nonzero;stroke:none" transform="matrix(1.83797 0 0 1.83797 279.216 313.115)"/><path d="m0 0-.042.001a1.125 1.125 0 0 0-1.083 1.166c.007.26.106 6.524-6.823 8.304-6.919 1.779-9.003-2.864-9.024-2.911a1.124 1.124 0 1 0-2.067.887c.028.065 2.876 6.461 11.652 4.204C1.325 9.413 1.127 1.167 1.124 1.084A1.126 1.126 0 0 0 0 0" style="fill:#000;fill-opacity:1;fill-rule:nonzero;stroke:none" transform="matrix(1.83797 0 0 1.83797 312.801 299.106)"/><path d="M0 0c-.536 0-1.012.386-1.106.933-.038.203-.999 5.088-6.686 5.333-5.566.253-6.324-2.986-6.354-3.123a1.128 1.128 0 0 0-1.322-.875c-.603.12-.999.695-.887 1.299.338 1.826 2.587 5.215 8.66 4.947 6.023-.26 8.393-4.821 8.805-7.197A1.124 1.124 0 0 0 0 0" style="fill:#000;fill-opacity:1;fill-rule:nonzero;stroke:none" transform="matrix(1.83797 0 0 1.83797 342.203 293.319)"/><path d="M0 0c0 1.149.991 2.082 2.212 2.082.535 0 1.018-.186 1.4-.482-.159 3.15-1.899 5.65-4.149 5.76-2.468.119-4.609-2.682-4.782-6.256-.174-3.577 1.687-6.571 4.155-6.69C.669-5.675 2.321-4.15 3.121-1.895a2.301 2.301 0 0 0-.909-.188C.991-2.083 0-1.151 0 0" style="fill:#000;fill-opacity:1;fill-rule:nonzero;stroke:none" transform="matrix(1.83797 0 0 1.83797 85.763 458.82)"/><path d="M0 0c0 1.169 1.007 2.118 2.25 2.118.525 0 1.002-.176 1.384-.459C3.417 4.442 1.917 6.638-.13 6.862c-2.455.27-4.765-2.395-5.155-5.952-.391-3.559 1.284-6.661 3.74-6.931 2.009-.222 3.919 1.524 4.761 4.116a2.334 2.334 0 0 0-.966-.213C1.007-2.118 0-1.17 0 0" style="fill:#000;fill-opacity:1;fill-rule:nonzero;stroke:none" transform="matrix(1.83797 0 0 1.83797 148.138 455.439)"/><path d="M0 0a8.958 8.958 0 0 0-.491-3.495" style="fill:#fff;fill-opacity:1;fill-rule:nonzero;stroke:none" transform="matrix(1.83797 0 0 1.83797 92.402 461.76)"/><path d="M0 0a2.273 2.273 0 0 1-1.4.482C-2.622.482-3.612-.45-3.612-1.6s.99-2.083 2.212-2.083c.325 0 .631.07.909.188A8.958 8.958 0 0 1 0 0" style="fill:#fff;fill-opacity:1;fill-rule:nonzero;stroke:none" transform="matrix(1.83797 0 0 1.83797 92.402 461.76)"/><path d="M0 0a2.317 2.317 0 0 1-1.384.459c-1.243 0-2.25-.949-2.25-2.118 0-1.17 1.007-2.118 2.25-2.118.347 0 .672.08.966.213.187.575.322 1.191.394 1.837C.041-1.135.043-.557 0 0" style="fill:#fff;fill-opacity:1;fill-rule:nonzero;stroke:none" transform="matrix(1.83797 0 0 1.83797 154.817 458.487)"/><path d="M0 0v-.002zm-5.282-8.824a1.127 1.127 0 0 0-.985 1.666L-2.213.218c.068.35.259.736.64 1.018 1.03.762 2.655.2 3.788-.29C3.224.512 4.03.418 4.613.674c.982.429 1.498 1.891 1.912 3.068.094.265.183.515.27.742-.055.505-2.015 1.854-4.37 2.738a1.129 1.129 0 0 0-.571 1.633c.025.041.697 1.205 2.742 6.046.705 1.672.576 2.259.488 2.433-.219.436-1.329.703-2.503.987-.78.188-1.654.399-2.582.716C-1.987 17.581-8.44 5.225-13.708-6.256a1.126 1.126 0 0 0-2.045.939C-2.985 22.507-.566 21.629.466 21.258c.923-.336 1.837-.555 2.642-.751 1.769-.426 3.296-.795 3.985-2.158.527-1.046.396-2.379-.425-4.324-1.126-2.667-1.852-4.256-2.294-5.176 1.478-.665 3.778-1.902 4.45-3.406.266-.592.289-1.207.069-1.775-.08-.205-.161-.434-.246-.674-.53-1.503-1.255-3.562-3.132-4.382-1.178-.515-2.588-.424-4.192.269-.75.325-1.202.432-1.448.466a.054.054 0 0 0-.007-.013l-4.162-7.575a1.128 1.128 0 0 0-.988-.583" style="fill:#000;fill-opacity:1;fill-rule:nonzero;stroke:none" transform="matrix(1.83797 0 0 1.83797 184.174 550.75)"/><path d="M0 0a1.127 1.127 0 0 0-1.042 1.55C.143 4.456 1.822 9.247 2.55 11.353c-3.055 1.114-4.614 1.882-5.215 3.196-.588 1.284-.076 2.596.7 4.583.164.422.345.886.535 1.398.409 1.101 1.17 1.847 2.2 2.159 2.012.608 4.629-.663 6.09-1.538.768 1.469 2.182 4.263 3.428 7.223.636 1.509 2.14 2.456 4.022 2.532 2.403.109 4.717-1.158 5.701-3.049 1.542-2.968-4.891-18.502-7.729-25.042a1.125 1.125 0 0 0-2.064.895c4.243 9.782 8.427 21.404 7.788 23.127-.655 1.258-2.302 1.866-3.605 1.821-.59-.024-1.638-.206-2.039-1.158-1.859-4.414-4.011-8.339-4.101-8.505a1.131 1.131 0 0 0-.74-.555 1.137 1.137 0 0 0-.906.186c-1.108.802-3.835 2.319-5.195 1.909-.234-.071-.531-.226-.741-.789-.194-.524-.379-.998-.548-1.432-.527-1.347-.942-2.412-.751-2.829.318-.692 2.629-1.558 4.971-2.386.581-.206.888-.841.69-1.424-.099-.289-2.43-7.126-3.999-10.974A1.125 1.125 0 0 0 0 0" style="fill:#000;fill-opacity:1;fill-rule:nonzero;stroke:none" transform="matrix(1.83797 0 0 1.83797 112.23 538.459)"/></g></svg>